<svg role="img" viewBox="0 0 1225 549" xmlns="http://www.w3.org/2000/svg" fill="#041E41"><path d="m179.13,0l188.74,0l0,47.14l-125.47,0c-4.42,0 -9.06,4.21 -9.06,9.08l0,32.07l136.51,0l0,102.46c0,0 0.89,21.46 20.36,21.46c19.48,0 20.36,-21.46 20.36,-21.46l0,-102.46l79.65,0l-0.23,126.58c0,13.85 -13.95,27.43 -27.22,27.43l-147.34,0c-13.26,0 -27.22,-13.37 -27.22,-27.21l0,-91.6l-54.44,0l0,355.79l-40.93,69.25l-40.71,-69.25l0,-355.8l-152.13,0l0,-35.17l151.9,0l0,-61.08c0,-13.86 12.64,-27.23 25.89,-27.23"/><path d="m555.07,242.31c-13.26,0 -27.23,-13.38 -27.23,-27.22l0,-99.55c0,-13.86 13.97,-27.22 27.23,-27.22l148.7,0c13.26,0 27.21,13.37 27.21,27.22l0,22.12l-79.88,0c0,0 0,-14.17 -21.69,-14.17c-21.68,0 -22.12,15.93 -22.12,15.93l0,54.87c0,0 0.22,17.71 22.35,17.71c22.13,0 22.35,-19.48 22.35,-19.48l0,-10.83l-21.46,0l0,-26.55l101.13,0l0,87.18l-73.25,0l-7.52,-12.84c0,0 -7.99,12.84 -20.37,12.84l-75.45,0l0,-0.01z"/><path d="m765.7,242.3l0,-154l194.71,0c0,0 30.53,2.66 30.53,28.77l0,36.73c0,26.1 -30.53,28.77 -30.53,28.77l-15.5,0l48.69,59.74l-99.58,0l-46.25,-53.32l0,53.32l-82.07,0l0,-0.01zm119.26,-79.88c0,0 15.94,-1.99 15.94,-21.25c0,-19.25 -15.94,-21.23 -15.94,-21.23l-37.19,0l0,42.48l37.19,0z"/><path d="m1224.58,214.41c0,13.86 -13.94,27.21 -27.2,27.21l-6.86,0.67l-139.62,0c-13.29,0 -27.23,-13.37 -27.23,-27.22l0,-99.56c0,-13.84 13.94,-27.21 27.23,-27.21l146.26,0c13.27,0 27.42,13.38 27.42,27.21l0,98.9zm-77.25,-73.18c0,0 -0.41,-19.3 -22.07,-19.3c-21.7,0 -22.13,20.8 -22.13,20.8l0,51.55c0,0 0.21,17.71 22.34,17.71c22.13,0 21.92,-19.48 21.92,-19.48l-0.06,-51.28z"/></svg>